#N canvas 1912 -8 1920 997 10;
#X text 177 277 creation arguments are OSC address;
#X text 179 238 set message to change OSC address;
#X text 164 48 1 Set IP Address : network address;
#X text 164 68 2 Set Ports (sending and listening);
#X text 164 87 3 Set OSC Addresses (routing osc data;
#X text 155 26 Key Settings;
#X floatatom 43 194 5 0 0 0 - - -;
#N canvas 116 330 623 462 oscReceive 0;
#X obj 55 184 netreceive -u -b;
#X msg 78 143 listen 0;
#X text 152 143 stop listening;
#X text 64 58 packets from network;
#X text 173 177 UDP packets \, binary output, f 13;
#X obj 45 314 print;
#X obj 45 272 oscparse;
#X text 150 114 listen on port 8000;
#X obj 177 269 oscparse;
#X obj 177 293 list trim;
#X floatatom 140 380 5 0 0 0 - - -;
#X text 241 267 Parse the OSC message;
#X obj 177 319 route unity;
#X obj 139 357 route trigger;
#X obj 140 407 s osctrig;
#X obj 66 84 loadbang;
#X floatatom 244 382 5 0 0 0 - - -;
#X obj 243 359 route tempo;
#X obj 244 409 s osctempo;
#X floatatom 339 382 5 0 0 0 - - -;
#X obj 338 359 route playseq;
#X obj 339 409 s oscplayseq;
#X floatatom 437 382 5 0 0 0 - - -;
#X obj 436 359 route colwall;
#X obj 437 409 s oscwall;
#X obj 413 148 netreceive -u -b;
#X msg 66 115 listen 6162;
#X connect 0 0 6 0;
#X connect 0 0 8 0;
#X connect 1 0 0 0;
#X connect 6 0 5 0;
#X connect 8 0 9 0;
#X connect 9 0 12 0;
#X connect 10 0 14 0;
#X connect 12 0 13 0;
#X connect 12 0 17 0;
#X connect 12 0 20 0;
#X connect 12 0 23 0;
#X connect 13 0 10 0;
#X connect 15 0 26 0;
#X connect 16 0 18 0;
#X connect 17 0 16 0;
#X connect 19 0 21 0;
#X connect 20 0 19 0;
#X connect 22 0 24 0;
#X connect 23 0 22 0;
#X connect 26 0 0 0;
#X restore 47 142 pd oscReceive;
#X obj 47 36 tgl 15 0 empty empty empty 17 7 0 10 -262144 -1 -1 0 1
;
#X msg 47 61 \; pd dsp \$1;
#X obj 44 278 oscformat PD message;
#X msg 76 239 set PD message;
#N canvas 727 97 450 300 oscSend 0;
#X msg 158 207 disconnect;
#X obj 61 253 netsend -u -b;
#X obj 59 55 list prepend send;
#X obj 59 80 list trim;
#X obj 59 29 r oscOut;
#X text 301 163 send to port 8001;
#X obj 147 108 loadbang;
#X msg 147 148 connect localhost 6969;
#X msg 150 175 connect 127.0.0.1 6969;
#X connect 0 0 1 0;
#X connect 2 0 3 0;
#X connect 3 0 1 0;
#X connect 4 0 2 0;
#X connect 6 0 7 0;
#X connect 7 0 1 0;
#X connect 8 0 1 0;
#X restore 47 118 pd oscSend;
#X obj 44 313 s oscOut;
#N canvas 188 93 340 342 operator 0;
#X floatatom 98 153 5 0 0 0 - - -;
#X obj 132 214 +~;
#X obj 162 183 *~ 100;
#X obj 162 119 +~;
#X obj 72 57 inlet;
#X obj 166 54 inlet~;
#X obj 132 258 outlet~;
#X obj 162 150 phasor~;
#X connect 0 0 1 0;
#X connect 1 0 6 0;
#X connect 2 0 1 1;
#X connect 3 0 7 0;
#X connect 4 0 0 0;
#X connect 5 0 3 0;
#X connect 7 0 2 0;
#X restore 619 299 pd operator;
#X obj 662 452 *~;
#X obj 653 497 dac~;
#X floatatom 620 187 5 0 0 0 - - -;
#N canvas 188 93 340 342 operator 0;
#X obj 183 163 osc~;
#X floatatom 119 166 5 0 0 0 - - -;
#X obj 153 227 +~;
#X obj 183 196 *~ 100;
#X obj 183 132 +~;
#X obj 93 70 inlet;
#X obj 187 67 inlet~;
#X obj 153 271 outlet~;
#X text 10 69 Carrier Freq;
#X text 233 69 Modulator Freq;
#X connect 0 0 3 0;
#X connect 1 0 2 0;
#X connect 2 0 7 0;
#X connect 3 0 2 1;
#X connect 4 0 0 0;
#X connect 5 0 1 0;
#X connect 6 0 4 0;
#X restore 678 251 pd operator;
#X floatatom 676 220 5 0 0 0 - - -;
#X floatatom 741 219 5 0 0 0 - - -;
#X obj 620 374 phasor~;
#X obj 743 312 vsl 15 128 0 0.5 0 0 empty empty empty 0 -9 0 10 -262144
-1 -1 0 1;
#X text 619 65 Motorcycle revving;
#X text 642 82 up and down;
#X obj 926 517 * 2;
#X obj 825 561 * 2.002;
#X obj 897 558 * 4.8;
#X obj 950 557 * 1.5;
#X obj 825 590 osc~;
#X obj 892 587 osc~;
#X obj 949 588 osc~;
#X obj 819 647 *~ 0.2;
#X obj 887 649 *~ 0.5;
#X obj 960 648 *~ 0.1;
#X obj 1032 433 bng 15 250 50 0 empty empty empty 17 7 0 10 -262144
-1 -1;
#X obj 880 708 *~ 0.5;
#X obj 837 476 mtof;
#X obj 1036 723 vline~;
#X obj 903 773 *~;
#X obj 860 901 dac~;
#X text 995 399 Checkpoint;
#X msg 1035 642 0.5 100 \, 0 500 100;
#N canvas 188 93 340 342 operator 0;
#X floatatom 98 153 5 0 0 0 - - -;
#X obj 132 214 +~;
#X obj 162 183 *~ 100;
#X obj 162 119 +~;
#X obj 72 57 inlet;
#X obj 166 54 inlet~;
#X obj 132 258 outlet~;
#X obj 162 150 phasor~;
#X connect 0 0 1 0;
#X connect 1 0 6 0;
#X connect 2 0 1 1;
#X connect 3 0 7 0;
#X connect 4 0 0 0;
#X connect 5 0 3 0;
#X connect 7 0 2 0;
#X restore 1296 259 pd operator;
#X obj 1339 412 *~;
#X obj 1330 457 dac~;
#X floatatom 1297 147 5 0 0 0 - - -;
#N canvas 188 93 340 342 operator 0;
#X floatatom 119 166 5 0 0 0 - - -;
#X obj 153 227 +~;
#X obj 183 196 *~ 100;
#X obj 183 132 +~;
#X obj 93 70 inlet;
#X obj 187 67 inlet~;
#X obj 153 271 outlet~;
#X text 10 69 Carrier Freq;
#X text 233 69 Modulator Freq;
#X obj 183 163 noise~;
#X connect 0 0 1 0;
#X connect 1 0 6 0;
#X connect 2 0 1 1;
#X connect 3 0 9 0;
#X connect 4 0 0 0;
#X connect 5 0 3 0;
#X connect 9 0 2 0;
#X restore 1355 211 pd operator;
#X floatatom 1353 180 5 0 0 0 - - -;
#X floatatom 1418 179 5 0 0 0 - - -;
#X obj 1297 334 phasor~;
#X obj 1399 299 vsl 15 128 0 0.5 0 0 empty empty empty 0 -9 0 10 -262144
-1 -1 0 1;
#X text 1290 21 Constant Motorcycle sound;
#X obj 1291 64 loadbang;
#X obj 1349 104 loadbang;
#X obj 1435 85 loadbang;
#X msg 1293 105 4;
#X msg 1422 143 123;
#X msg 1352 140 221;
#X obj 676 178 loadbang;
#X obj 741 177 loadbang;
#X msg 676 199 96;
#X msg 741 199 309;
#X obj 865 858 *~;
#X obj 808 727 vsl 15 128 0 0.5 0 0 empty empty empty 0 -9 0 10 -262144
-1 -1 0 1;
#N canvas 218 394 817 485 reverb 0;
#X obj 311 108 rev3~ 100 90 3000 20;
#X obj 170 -87 inlet~;
#X obj 65 131 *~;
#X floatatom 99 107 5 0 0 0 - - -;
#X text 133 107 "dry" signal;
#X obj 168 73 loadbang;
#X obj 127 244 outlet~;
#X floatatom 522 185 5 0 0 0 - - -;
#X obj 609 143 loadbang;
#X text 556 184 "wet" signal;
#X obj 356 165 *~;
#X msg 139 89 0.9;
#X msg 522 160 0.1;
#X connect 0 0 10 0;
#X connect 0 1 10 0;
#X connect 0 2 10 0;
#X connect 0 3 10 0;
#X connect 1 0 2 0;
#X connect 1 0 0 0;
#X connect 2 0 6 0;
#X connect 3 0 2 1;
#X connect 5 0 11 0;
#X connect 7 0 10 1;
#X connect 8 0 12 0;
#X connect 10 0 6 0;
#X connect 11 0 3 0;
#X connect 12 0 7 0;
#X restore 881 824 pd reverb;
#X obj 1298 371 bp~ 242 8;
#X obj 619 408 lop~ 30;
#X obj 892 333 select 0 1 2 3;
#X text 780 324 select based on checkpoint passed;
#X floatatom 862 447 5 0 0 0 - - -;
#X msg 857 381 60;
#X msg 910 381 64;
#X msg 958 381 67;
#X msg 804 380 57;
#X text 994 282 input from unity;
#X obj 620 129 r velocity;
#X obj 620 151 + 213 * 20;
#X obj 898 275 r checkpoint;
#X obj 1361 535 r test;
#X msg 1348 597 activated;
#X obj 1347 626 print;
#X obj 1349 564 bng 15 250 50 0 empty empty empty 17 7 0 10 -262144
-1 -1;
#X connect 6 0 10 0;
#X connect 8 0 9 0;
#X connect 10 0 13 0;
#X connect 11 0 10 0;
#X connect 14 0 21 0;
#X connect 15 0 16 0;
#X connect 15 0 16 1;
#X connect 17 0 14 0;
#X connect 18 0 14 1;
#X connect 19 0 18 0;
#X connect 20 0 18 1;
#X connect 21 0 67 0;
#X connect 22 0 15 1;
#X connect 25 0 27 0;
#X connect 25 0 28 0;
#X connect 26 0 29 0;
#X connect 27 0 30 0;
#X connect 28 0 31 0;
#X connect 29 0 32 0;
#X connect 30 0 33 0;
#X connect 31 0 34 0;
#X connect 32 0 36 0;
#X connect 33 0 36 0;
#X connect 34 0 36 0;
#X connect 35 0 42 0;
#X connect 35 0 70 0;
#X connect 36 0 39 0;
#X connect 37 0 26 0;
#X connect 37 0 25 0;
#X connect 38 0 39 1;
#X connect 39 0 65 0;
#X connect 42 0 38 0;
#X connect 43 0 50 0;
#X connect 44 0 45 0;
#X connect 44 0 45 1;
#X connect 46 0 43 0;
#X connect 47 0 43 1;
#X connect 48 0 47 0;
#X connect 49 0 47 1;
#X connect 50 0 66 0;
#X connect 51 0 44 1;
#X connect 53 0 56 0;
#X connect 54 0 58 0;
#X connect 55 0 57 0;
#X connect 56 0 46 0;
#X connect 57 0 49 0;
#X connect 58 0 48 0;
#X connect 59 0 61 0;
#X connect 60 0 62 0;
#X connect 61 0 19 0;
#X connect 62 0 20 0;
#X connect 63 0 40 0;
#X connect 63 0 40 1;
#X connect 64 0 63 0;
#X connect 65 0 63 1;
#X connect 66 0 44 0;
#X connect 67 0 15 0;
#X connect 68 0 74 0;
#X connect 68 0 35 0;
#X connect 68 1 71 0;
#X connect 68 1 35 0;
#X connect 68 2 72 0;
#X connect 68 2 35 0;
#X connect 68 3 73 0;
#X connect 68 3 35 0;
#X connect 70 0 37 0;
#X connect 71 0 70 0;
#X connect 72 0 70 0;
#X connect 73 0 70 0;
#X connect 74 0 70 0;
#X connect 76 0 77 0;
#X connect 77 0 17 0;
#X connect 78 0 68 0;
#X connect 79 0 82 0;
#X connect 80 0 81 0;
#X connect 82 0 80 0;
