#N canvas -8 -8 1920 997 10;
#X obj 18 12 tgl 15 0 empty empty empty 17 7 0 10 -262144 -1 -1 1 1
;
#X msg 16 37 \; pd dsp \$1;
#N canvas 188 93 340 342 operator 0;
#X floatatom 98 153 5 0 0 0 - - -;
#X obj 132 214 +~;
#X obj 162 183 *~ 100;
#X obj 162 119 +~;
#X obj 72 57 inlet;
#X obj 166 54 inlet~;
#X obj 132 258 outlet~;
#X obj 162 150 phasor~;
#X connect 0 0 1 0;
#X connect 1 0 6 0;
#X connect 2 0 1 1;
#X connect 3 0 7 0;
#X connect 4 0 0 0;
#X connect 5 0 3 0;
#X connect 7 0 2 0;
#X restore 417 347 pd operator;
#X obj 460 500 *~;
#X obj 451 545 dac~;
#X floatatom 418 235 5 0 0 0 - - -;
#N canvas 188 93 340 342 operator 0;
#X obj 183 163 osc~;
#X floatatom 119 166 5 0 0 0 - - -;
#X obj 153 227 +~;
#X obj 183 196 *~ 100;
#X obj 183 132 +~;
#X obj 93 70 inlet;
#X obj 187 67 inlet~;
#X obj 153 271 outlet~;
#X text 10 69 Carrier Freq;
#X text 233 69 Modulator Freq;
#X connect 0 0 3 0;
#X connect 1 0 2 0;
#X connect 2 0 7 0;
#X connect 3 0 2 1;
#X connect 4 0 0 0;
#X connect 5 0 1 0;
#X connect 6 0 4 0;
#X restore 476 299 pd operator;
#X floatatom 474 268 5 0 0 0 - - -;
#X floatatom 539 267 5 0 0 0 - - -;
#X obj 418 422 phasor~;
#X obj 540 372 vsl 15 128 0 0.5 0 0 empty empty empty 0 -9 0 10 -262144
-1 -1 0 1;
#X text 417 113 Motorcycle revving;
#X text 303 230 Change this part;
#X text 440 130 up and down;
#X obj 724 565 * 2;
#X obj 623 609 * 2.002;
#X obj 695 606 * 4.8;
#X obj 748 605 * 1.5;
#X obj 623 638 osc~;
#X obj 690 635 osc~;
#X obj 747 636 osc~;
#X obj 617 695 *~ 0.2;
#X obj 685 697 *~ 0.5;
#X obj 758 696 *~ 0.1;
#X obj 830 481 bng 15 250 50 0 empty empty empty 17 7 0 10 -262144
-1 -1;
#X obj 678 756 *~ 0.5;
#X obj 635 524 mtof;
#X obj 834 771 vline~;
#X obj 701 821 *~;
#X obj 658 949 dac~;
#X text 793 447 Checkpoint;
#X msg 833 690 0.5 100 \, 0 500 100;
#N canvas 188 93 340 342 operator 0;
#X floatatom 98 153 5 0 0 0 - - -;
#X obj 132 214 +~;
#X obj 162 183 *~ 100;
#X obj 162 119 +~;
#X obj 72 57 inlet;
#X obj 166 54 inlet~;
#X obj 132 258 outlet~;
#X obj 162 150 phasor~;
#X connect 0 0 1 0;
#X connect 1 0 6 0;
#X connect 2 0 1 1;
#X connect 3 0 7 0;
#X connect 4 0 0 0;
#X connect 5 0 3 0;
#X connect 7 0 2 0;
#X restore 1094 307 pd operator;
#X obj 1137 460 *~;
#X obj 1128 505 dac~;
#X floatatom 1095 195 5 0 0 0 - - -;
#N canvas 188 93 340 342 operator 0;
#X floatatom 119 166 5 0 0 0 - - -;
#X obj 153 227 +~;
#X obj 183 196 *~ 100;
#X obj 183 132 +~;
#X obj 93 70 inlet;
#X obj 187 67 inlet~;
#X obj 153 271 outlet~;
#X text 10 69 Carrier Freq;
#X text 233 69 Modulator Freq;
#X obj 183 163 noise~;
#X connect 0 0 1 0;
#X connect 1 0 6 0;
#X connect 2 0 1 1;
#X connect 3 0 9 0;
#X connect 4 0 0 0;
#X connect 5 0 3 0;
#X connect 9 0 2 0;
#X restore 1153 259 pd operator;
#X floatatom 1151 228 5 0 0 0 - - -;
#X floatatom 1216 227 5 0 0 0 - - -;
#X obj 1095 382 phasor~;
#X obj 1216 336 vsl 15 128 0 0.5 0 0 empty empty empty 0 -9 0 10 -262144
-1 -1 0 1;
#X text 1088 69 Constant Motorcycle sound;
#X obj 1089 112 loadbang;
#X obj 1147 152 loadbang;
#X obj 1233 133 loadbang;
#X msg 1091 153 4;
#X msg 1220 191 123;
#X msg 1150 188 221;
#X obj 474 226 loadbang;
#X obj 539 225 loadbang;
#X msg 474 247 96;
#X msg 539 247 309;
#X obj 663 906 *~;
#X obj 606 775 vsl 15 128 0 0.5 0 0 empty empty empty 0 -9 0 10 -262144
-1 -1 1900 1;
#N canvas 218 394 817 485 reverb 0;
#X obj 311 108 rev3~ 100 90 3000 20;
#X obj 170 -87 inlet~;
#X obj 65 131 *~;
#X floatatom 99 107 5 0 0 0 - - -;
#X text 133 107 "dry" signal;
#X obj 168 73 loadbang;
#X obj 127 244 outlet~;
#X floatatom 522 185 5 0 0 0 - - -;
#X obj 609 143 loadbang;
#X text 556 184 "wet" signal;
#X obj 356 165 *~;
#X msg 139 89 0.9;
#X msg 522 160 0.1;
#X connect 0 0 10 0;
#X connect 0 1 10 0;
#X connect 0 2 10 0;
#X connect 0 3 10 0;
#X connect 1 0 2 0;
#X connect 1 0 0 0;
#X connect 2 0 6 0;
#X connect 3 0 2 1;
#X connect 5 0 11 0;
#X connect 7 0 10 1;
#X connect 8 0 12 0;
#X connect 10 0 6 0;
#X connect 11 0 3 0;
#X connect 12 0 7 0;
#X restore 679 872 pd reverb;
#X obj 1096 419 bp~ 242 8;
#X obj 417 456 lop~ 30;
#X obj 690 381 select 0 1 2 3;
#X text 578 372 select based on checkpoint passed;
#X floatatom 660 495 5 0 0 0 - - -;
#X msg 655 429 60;
#X msg 708 429 64;
#X msg 756 429 67;
#X msg 602 428 57;
#X text 792 330 input from unity;
#N canvas 730 487 450 300 oscSend 0;
#X msg 168 217 disconnect;
#X obj 69 65 list prepend send;
#X obj 69 90 list trim;
#X obj 69 39 r oscOut;
#X obj 157 118 loadbang;
#X obj 71 263 netsend -6969 -b;
#X text 311 173 send to port;
#X msg 158 158 connect localhost 7000;
#X msg 160 185 connect 127.0.0.1 7000;
#X connect 0 0 5 0;
#X connect 1 0 2 0;
#X connect 2 0 5 0;
#X connect 3 0 1 0;
#X connect 4 0 7 0;
#X connect 7 0 5 0;
#X connect 8 0 5 0;
#X restore 14 92 pd oscSend;
#N canvas 779 387 810 481 oscReceive 0;
#X text 183 187 UDP packets \, binary output;
#X obj 55 324 print;
#X obj 55 282 oscparse;
#X obj 187 279 oscparse;
#X obj 187 303 list trim;
#X floatatom 140 391 5 0 0 0 - - -;
#X text 251 277 Parse the OSC message;
#X obj 187 329 route unity;
#X floatatom 254 392 5 0 0 0 - - -;
#X floatatom 363 392 5 0 0 0 - - -;
#X text 239 167 listen on port 6161;
#X obj 362 367 route collide;
#X obj 253 369 route velocity;
#X obj 139 368 route checkpoint;
#X obj 140 418 s checkpoint;
#X obj 254 419 s velocity;
#X obj 363 417 s collide;
#X obj 65 194 netreceive -7001 -1;
#X connect 2 0 1 0;
#X connect 3 0 4 0;
#X connect 4 0 7 0;
#X connect 5 0 14 0;
#X connect 7 0 11 0;
#X connect 7 0 12 0;
#X connect 7 0 13 0;
#X connect 8 0 15 0;
#X connect 9 0 16 0;
#X connect 11 0 9 0;
#X connect 12 0 8 0;
#X connect 13 0 5 0;
#X connect 17 0 2 0;
#X connect 17 0 3 0;
#X restore 11 123 pd oscReceive;
#X obj 418 177 r velocity;
#X obj 418 199 + 213 * 20;
#X obj 696 323 r checkpoint;
#X connect 0 0 1 0;
#X connect 2 0 9 0;
#X connect 3 0 4 0;
#X connect 3 0 4 1;
#X connect 5 0 2 0;
#X connect 6 0 2 1;
#X connect 7 0 6 0;
#X connect 8 0 6 1;
#X connect 9 0 56 0;
#X connect 10 0 3 1;
#X connect 14 0 16 0;
#X connect 14 0 17 0;
#X connect 15 0 18 0;
#X connect 16 0 19 0;
#X connect 17 0 20 0;
#X connect 18 0 21 0;
#X connect 19 0 22 0;
#X connect 20 0 23 0;
#X connect 21 0 25 0;
#X connect 22 0 25 0;
#X connect 23 0 25 0;
#X connect 24 0 31 0;
#X connect 24 0 59 0;
#X connect 25 0 28 0;
#X connect 26 0 15 0;
#X connect 26 0 14 0;
#X connect 27 0 28 1;
#X connect 28 0 54 0;
#X connect 31 0 27 0;
#X connect 32 0 39 0;
#X connect 33 0 34 0;
#X connect 33 0 34 1;
#X connect 35 0 32 0;
#X connect 36 0 32 1;
#X connect 37 0 36 0;
#X connect 38 0 36 1;
#X connect 39 0 55 0;
#X connect 40 0 33 1;
#X connect 42 0 45 0;
#X connect 43 0 47 0;
#X connect 44 0 46 0;
#X connect 45 0 35 0;
#X connect 46 0 38 0;
#X connect 47 0 37 0;
#X connect 48 0 50 0;
#X connect 49 0 51 0;
#X connect 50 0 7 0;
#X connect 51 0 8 0;
#X connect 52 0 29 0;
#X connect 52 0 29 1;
#X connect 53 0 52 0;
#X connect 54 0 52 1;
#X connect 55 0 33 0;
#X connect 56 0 3 0;
#X connect 57 0 63 0;
#X connect 57 0 24 0;
#X connect 57 1 60 0;
#X connect 57 1 24 0;
#X connect 57 2 61 0;
#X connect 57 2 24 0;
#X connect 57 3 62 0;
#X connect 57 3 24 0;
#X connect 59 0 26 0;
#X connect 60 0 59 0;
#X connect 61 0 59 0;
#X connect 62 0 59 0;
#X connect 63 0 59 0;
#X connect 67 0 68 0;
#X connect 68 0 5 0;
#X connect 69 0 57 0;
