#N canvas 1912 -8 1920 997 10;
#X text 177 277 creation arguments are OSC address;
#X text 179 238 set message to change OSC address;
#X text 164 48 1 Set IP Address : network address;
#X text 164 68 2 Set Ports (sending and listening);
#X text 164 87 3 Set OSC Addresses (routing osc data;
#X text 155 26 Key Settings;
#X floatatom 43 194 5 0 0 0 - - -;
#N canvas 1980 404 623 462 oscReceive 0;
#X obj 55 184 netreceive -u -b;
#X msg 78 143 listen 0;
#X text 152 143 stop listening;
#X text 64 58 packets from network;
#X text 173 177 UDP packets \, binary output, f 13;
#X obj 45 314 print;
#X obj 45 272 oscparse;
#X text 150 114 listen on port 8000;
#X obj 177 269 oscparse;
#X obj 177 293 list trim;
#X floatatom 140 380 5 0 0 0 - - -;
#X text 241 267 Parse the OSC message;
#X obj 177 319 route unity;
#X obj 66 84 loadbang;
#X floatatom 244 382 5 0 0 0 - - -;
#X floatatom 339 382 5 0 0 0 - - -;
#X obj 413 148 netreceive -u -b;
#X msg 66 115 listen 6162;
#X obj 139 357 route checkpoint;
#X obj 140 407 s cpoint;
#X obj 243 359 route velocity;
#X obj 244 409 s velo;
#X obj 338 359 route test;
#X obj 340 409 s test;
#X floatatom 418 380 5 0 0 0 - - -;
#X obj 417 357 route on;
#X obj 419 408 s on;
#X connect 0 0 6 0;
#X connect 0 0 8 0;
#X connect 1 0 0 0;
#X connect 6 0 5 0;
#X connect 8 0 9 0;
#X connect 9 0 12 0;
#X connect 10 0 19 0;
#X connect 12 0 18 0;
#X connect 12 0 20 0;
#X connect 12 0 22 0;
#X connect 12 0 25 0;
#X connect 13 0 17 0;
#X connect 14 0 21 0;
#X connect 15 0 23 0;
#X connect 17 0 0 0;
#X connect 18 0 10 0;
#X connect 20 0 14 0;
#X connect 22 0 15 0;
#X connect 24 0 26 0;
#X connect 25 0 24 0;
#X restore 47 142 pd oscReceive;
#X obj 47 36 tgl 15 0 empty empty empty 17 7 0 10 -262144 -1 -1 1 1
;
#X msg 47 61 \; pd dsp \$1;
#X obj 44 278 oscformat PD message;
#X msg 76 239 set PD message;
#N canvas 727 97 450 300 oscSend 0;
#X msg 158 207 disconnect;
#X obj 61 253 netsend -u -b;
#X obj 59 55 list prepend send;
#X obj 59 80 list trim;
#X obj 59 29 r oscOut;
#X text 301 163 send to port 8001;
#X obj 147 108 loadbang;
#X msg 147 148 connect localhost 6969;
#X msg 150 175 connect 127.0.0.1 6969;
#X connect 0 0 1 0;
#X connect 2 0 3 0;
#X connect 3 0 1 0;
#X connect 4 0 2 0;
#X connect 6 0 7 0;
#X connect 7 0 1 0;
#X connect 8 0 1 0;
#X restore 47 118 pd oscSend;
#X obj 44 313 s oscOut;
#N canvas 188 93 340 342 operator 0;
#X floatatom 98 153 5 0 0 0 - - -;
#X obj 132 214 +~;
#X obj 162 183 *~ 100;
#X obj 162 119 +~;
#X obj 72 57 inlet;
#X obj 166 54 inlet~;
#X obj 132 258 outlet~;
#X obj 162 150 phasor~;
#X connect 0 0 1 0;
#X connect 1 0 6 0;
#X connect 2 0 1 1;
#X connect 3 0 7 0;
#X connect 4 0 0 0;
#X connect 5 0 3 0;
#X connect 7 0 2 0;
#X restore 619 299 pd operator;
#X obj 656 492 *~;
#X obj 649 572 dac~;
#N canvas 188 93 340 342 operator 0;
#X obj 183 163 osc~;
#X floatatom 119 166 5 0 0 0 - - -;
#X obj 153 227 +~;
#X obj 183 196 *~ 100;
#X obj 183 132 +~;
#X obj 93 70 inlet;
#X obj 187 67 inlet~;
#X obj 153 271 outlet~;
#X text 10 69 Carrier Freq;
#X text 233 69 Modulator Freq;
#X connect 0 0 3 0;
#X connect 1 0 2 0;
#X connect 2 0 7 0;
#X connect 3 0 2 1;
#X connect 4 0 0 0;
#X connect 5 0 1 0;
#X connect 6 0 4 0;
#X restore 678 251 pd operator;
#X floatatom 676 220 5 0 0 0 - - -;
#X floatatom 741 219 5 0 0 0 - - -;
#X obj 620 374 phasor~;
#X text 619 65 Motorcycle revving;
#X text 642 82 up and down;
#X obj 926 517 * 2;
#X obj 825 561 * 2.002;
#X obj 897 558 * 4.8;
#X obj 950 557 * 1.5;
#X obj 825 590 osc~;
#X obj 892 587 osc~;
#X obj 949 588 osc~;
#X obj 819 647 *~ 0.2;
#X obj 887 649 *~ 0.5;
#X obj 960 648 *~ 0.1;
#X obj 1032 433 bng 15 250 50 0 empty empty empty 17 7 0 10 -262144
-1 -1;
#X obj 880 708 *~ 0.5;
#X obj 837 476 mtof;
#X obj 1036 723 vline~;
#X obj 903 773 *~;
#X obj 865 922 dac~;
#X text 995 399 Checkpoint;
#X msg 1035 642 0.5 100 \, 0 500 100;
#N canvas 188 93 340 342 operator 0;
#X floatatom 98 153 5 0 0 0 - - -;
#X obj 132 214 +~;
#X obj 162 183 *~ 100;
#X obj 162 119 +~;
#X obj 72 57 inlet;
#X obj 166 54 inlet~;
#X obj 132 258 outlet~;
#X obj 162 150 phasor~;
#X connect 0 0 1 0;
#X connect 1 0 6 0;
#X connect 2 0 1 1;
#X connect 3 0 7 0;
#X connect 4 0 0 0;
#X connect 5 0 3 0;
#X connect 7 0 2 0;
#X restore 1296 259 pd operator;
#X obj 1339 412 *~;
#X obj 1335 476 dac~;
#X floatatom 1297 147 5 0 0 0 - - -;
#N canvas 188 93 340 342 operator 0;
#X floatatom 119 166 5 0 0 0 - - -;
#X obj 153 227 +~;
#X obj 183 196 *~ 100;
#X obj 183 132 +~;
#X obj 93 70 inlet;
#X obj 187 67 inlet~;
#X obj 153 271 outlet~;
#X text 10 69 Carrier Freq;
#X text 233 69 Modulator Freq;
#X obj 183 163 noise~;
#X connect 0 0 1 0;
#X connect 1 0 6 0;
#X connect 2 0 1 1;
#X connect 3 0 9 0;
#X connect 4 0 0 0;
#X connect 5 0 3 0;
#X connect 9 0 2 0;
#X restore 1355 211 pd operator;
#X floatatom 1353 180 5 0 0 0 - - -;
#X floatatom 1418 179 5 0 0 0 - - -;
#X obj 1297 334 phasor~;
#X text 1290 21 Constant Motorcycle sound;
#X obj 1291 64 loadbang;
#X obj 1349 104 loadbang;
#X obj 1435 85 loadbang;
#X msg 1293 105 4;
#X msg 1422 143 123;
#X msg 1352 140 221;
#X obj 676 178 loadbang;
#X obj 741 177 loadbang;
#X msg 676 199 96;
#X msg 741 199 309;
#X obj 865 858 *~;
#N canvas 218 394 817 485 reverb 0;
#X obj 311 108 rev3~ 100 90 3000 20;
#X obj 170 -87 inlet~;
#X obj 65 131 *~;
#X floatatom 99 107 5 0 0 0 - - -;
#X text 133 107 "dry" signal;
#X obj 168 73 loadbang;
#X obj 127 244 outlet~;
#X floatatom 522 185 5 0 0 0 - - -;
#X obj 609 143 loadbang;
#X text 556 184 "wet" signal;
#X obj 356 165 *~;
#X msg 139 89 0.9;
#X msg 522 160 0.1;
#X connect 0 0 10 0;
#X connect 0 1 10 0;
#X connect 0 2 10 0;
#X connect 0 3 10 0;
#X connect 1 0 2 0;
#X connect 1 0 0 0;
#X connect 2 0 6 0;
#X connect 3 0 2 1;
#X connect 5 0 11 0;
#X connect 7 0 10 1;
#X connect 8 0 12 0;
#X connect 10 0 6 0;
#X connect 11 0 3 0;
#X connect 12 0 7 0;
#X restore 881 824 pd reverb;
#X obj 1298 371 bp~ 242 8;
#X obj 619 408 lop~ 30;
#X obj 892 333 select 0 1 2 3;
#X text 780 324 select based on checkpoint passed;
#X floatatom 862 447 5 0 0 0 - - -;
#X msg 857 381 60;
#X msg 910 381 64;
#X msg 958 381 67;
#X msg 804 380 57;
#X text 994 282 input from unity;
#X obj 1361 535 r test;
#X msg 1348 597 activated;
#X obj 1347 626 print;
#X obj 1349 564 bng 15 250 50 0 empty empty empty 17 7 0 10 -262144
-1 -1;
#X floatatom 841 252 5 0 0 0 - - -;
#X obj 846 210 bng 15 250 50 0 empty empty empty 17 7 0 10 -262144
-1 -1;
#X obj 898 275 r cpoint;
#X obj 620 129 r velo;
#X obj 621 198 + 213;
#X floatatom 618 226 5 0 0 0 - - -;
#X text 353 399 0 when Unity is not on;
#X text 352 425 1 when it starts up;
#X obj 1440 262 vsl 15 128 0 1 0 0 empty empty empty 0 -9 0 10 -262144
-1 -1 4600 1;
#X obj 550 272 vsl 15 128 0 1 0 0 empty empty empty 0 -9 0 10 -262144
-1 -1 5000 1;
#X floatatom 1434 409 5 0 0 0 - - -;
#X floatatom 558 447 5 0 0 0 - - -;
#X obj 756 576 vsl 15 128 0 1 0 0 empty empty empty 0 -9 0 10 -262144
-1 -1 4380 1;
#X floatatom 758 756 5 0 0 0 - - -;
#X obj 304 435 r on;
#X obj 261 431 tgl 15 0 empty empty empty 17 7 0 10 -262144 -1 -1 0
1;
#X obj 304 470 select 0 1;
#X obj 298 508 bng 15 250 50 0 empty empty empty 17 7 0 10 -262144
-1 -1;
#X obj 327 504 bng 15 250 50 0 empty empty empty 17 7 0 10 -262144
-1 -1;
#X obj 290 574 vline~;
#X msg 286 537 0 50;
#X msg 334 542 1 50;
#X obj 654 530 *~;
#X obj 616 166 * 750;
#X obj 1335 444 *~;
#X obj 866 895 *~;
#X connect 6 0 10 0;
#X connect 8 0 9 0;
#X connect 10 0 13 0;
#X connect 11 0 10 0;
#X connect 14 0 20 0;
#X connect 15 0 98 0;
#X connect 17 0 14 1;
#X connect 18 0 17 0;
#X connect 19 0 17 1;
#X connect 20 0 63 0;
#X connect 23 0 25 0;
#X connect 23 0 26 0;
#X connect 24 0 27 0;
#X connect 25 0 28 0;
#X connect 26 0 29 0;
#X connect 27 0 30 0;
#X connect 28 0 31 0;
#X connect 29 0 32 0;
#X connect 30 0 34 0;
#X connect 31 0 34 0;
#X connect 32 0 34 0;
#X connect 33 0 40 0;
#X connect 33 0 66 0;
#X connect 34 0 37 0;
#X connect 35 0 24 0;
#X connect 35 0 23 0;
#X connect 36 0 37 1;
#X connect 37 0 61 0;
#X connect 40 0 36 0;
#X connect 41 0 48 0;
#X connect 42 0 100 0;
#X connect 44 0 41 0;
#X connect 45 0 41 1;
#X connect 46 0 45 0;
#X connect 47 0 45 1;
#X connect 48 0 62 0;
#X connect 50 0 53 0;
#X connect 51 0 55 0;
#X connect 52 0 54 0;
#X connect 53 0 44 0;
#X connect 54 0 47 0;
#X connect 55 0 46 0;
#X connect 56 0 58 0;
#X connect 57 0 59 0;
#X connect 58 0 18 0;
#X connect 59 0 19 0;
#X connect 60 0 101 0;
#X connect 61 0 60 1;
#X connect 62 0 42 0;
#X connect 63 0 15 0;
#X connect 64 0 70 0;
#X connect 64 0 33 0;
#X connect 64 1 67 0;
#X connect 64 1 33 0;
#X connect 64 2 68 0;
#X connect 64 2 33 0;
#X connect 64 3 69 0;
#X connect 64 3 33 0;
#X connect 66 0 35 0;
#X connect 67 0 66 0;
#X connect 68 0 66 0;
#X connect 69 0 66 0;
#X connect 70 0 66 0;
#X connect 72 0 75 0;
#X connect 73 0 74 0;
#X connect 75 0 73 0;
#X connect 76 0 64 0;
#X connect 77 0 76 0;
#X connect 78 0 64 0;
#X connect 79 0 99 0;
#X connect 80 0 81 0;
#X connect 81 0 14 0;
#X connect 84 0 86 0;
#X connect 85 0 87 0;
#X connect 86 0 42 1;
#X connect 87 0 15 1;
#X connect 88 0 89 0;
#X connect 89 0 60 0;
#X connect 90 0 92 0;
#X connect 91 0 92 0;
#X connect 92 0 93 0;
#X connect 92 1 94 0;
#X connect 93 0 96 0;
#X connect 94 0 97 0;
#X connect 95 0 98 1;
#X connect 95 0 101 1;
#X connect 95 0 100 1;
#X connect 96 0 95 0;
#X connect 97 0 95 0;
#X connect 98 0 16 0;
#X connect 98 0 16 1;
#X connect 99 0 80 0;
#X connect 100 0 43 0;
#X connect 100 0 43 1;
#X connect 101 0 38 0;
#X connect 101 0 38 1;
